<svg width="16" height="16" viewBox="0 0 16 16" fill="none" xmlns="http://www.w3.org/2000/svg">
<path fill-rule="evenodd" clip-rule="evenodd" d="M4.10892 12.9179C3.96369 13.0631 3.96369 13.2986 4.10892 13.4438C4.25415 13.589 4.4896 13.589 4.63483 13.4438L13.4438 4.63483C13.589 4.4896 13.589 4.25415 13.4438 4.10892C13.2986 3.96369 13.0631 3.96369 12.9179 4.10892L4.10892 12.9179ZM7.92179 11.7346C7.77657 11.8798 7.77657 12.1153 7.92179 12.2605C8.06702 12.4057 8.30248 12.4057 8.4477 12.2605L12.2605 8.44767C12.4058 8.30244 12.4058 8.06698 12.2605 7.92176C12.1153 7.77653 11.8799 7.77653 11.7346 7.92176L7.92179 11.7346Z" fill="black" fill-opacity="0.25"/>
</svg>
